<svg xmlns="http://www.w3.org/2000/svg" viewBox="0 0 150 500">
  <path d="M75,5 L85,4 L95,8 L102,15 L108,25 L112,38 L110,52 L105,65 L98,78 L92,90 L88,102 L84,114 L80,126 L76,138 L72,150 L68,162 L64,174 L60,186 L58,198 L58,210 L60,222 L64,234 L68,246 L72,258 L76,270 L79,282 L81,294 L82,306 L82,318 L81,330 L79,342 L76,354 L72,366 L67,378 L61,390 L55,402 L50,414 L46,426 L44,438 L44,450 L46,462 L50,472 L45,470 L40,462 L37,450 L35,436 L34,422 L33,408 L32,394 L31,380 L30,366 L30,352 L31,338 L33,324 L36,310 L40,296 L44,282 L48,268 L52,254 L56,240 L60,226 L64,212 L68,198 L72,184 L76,170 L79,156 L81,142 L82,128 L82,114 L81,100 L79,86 L76,72 L72,58 L68,44 L64,30 L60,16 Z" fill="#16213e" stroke="#0f3460" stroke-width="1.5"/>
</svg>
